<?xml version="1.0" encoding="UTF-8"?>
<svg width="45px" height="45px" viewBox="0 0 55 56" version="1.1" xmlns="http://www.w3.org/2000/svg" xmlnsXlink="http://www.w3.org/1999/xlink">
    <title>ttv-retro</title>
    <g id="Page-1" stroke="none" strokeWidth="1" fill="currentColor" fillRule="evenodd">
        <path d="M12.0312213,55.8749836 L14.3192808,52.4374918 L40.6697829,52.4374918 L42.9579474,55.8749836 L48.1141851,55.8749836 L48.1141851,52.4374918 L49.832931,52.4374918 C52.6796039,52.4374918 54.9892057,50.127927 54.9892057,47.2812541 L54.9892057,16.3438279 C54.9998689,13.497155 52.6903041,11.1875902 49.8436312,11.1875902 L36.3944235,11.1875902 L40.2293963,6.74029317 C41.5721665,5.39752293 41.5721665,3.21688505 40.2293963,1.87411481 C38.886626,0.531344578 36.7059882,0.531344578 35.3632179,1.87411481 L27.4999344,10.9942522 L19.636651,1.88491992 C18.2938807,0.542149682 16.1132428,0.542149682 14.7704726,1.88491992 C13.4277024,3.22769015 13.4277024,5.40832804 14.7704726,6.75109827 L18.6054454,11.1875902 L5.15623771,11.1875902 C2.30956481,11.1875902 0,13.497155 0,16.3438279 L0,47.2812541 C0,50.127927 2.30956481,52.4374918 5.15623771,52.4374918 L6.87498361,52.4374918 L6.87498361,55.8749836 L12.0312213,55.8749836 Z M24.5984516,45.5625082 L24.0624426,45.5625082 C9.69372689,45.5625082 7.969481,44.8970098 7.76257149,44.7372902 L7.75068465,44.7271977 C7.74905184,44.7256508 7.74758231,44.7241727 7.74625973,44.722765 C7.73835694,44.7129407 7.73721397,44.7109985 7.73639757,44.7093657 L7.73479742,44.7054091 C7.73435656,44.7031352 7.73393218,44.7031352 7.73310228,44.7029938 C7.65966538,44.6776723 6.87498361,44.1302199 6.87498361,31.812541 C6.87498361,21.7865232 7.3948512,19.5585193 7.62590346,19.0634073 L7.64498177,19.0250715 C7.67553726,18.9677799 7.69972701,18.942317 7.71519337,18.9310002 L7.72340751,18.9257661 L7.72340751,18.9257661 C7.73103695,18.9225126 7.73227237,18.9222296 7.73310228,18.9220882 L7.73437289,18.9216906 L7.73479742,18.9196728 L7.73995709,18.9099035 L7.73995709,18.9099035 C7.86529148,18.7756282 9.1746407,18.0781439 23.5774821,18.0625738 L24.0624426,18.0625738 C40.3045914,18.0625738 41.9288063,18.7586659 42.0912278,18.8978843 L42.1030845,18.9099035 C42.107506,18.915498 42.1087693,18.9192448 42.1091302,18.9209292 C42.1092746,18.9219467 42.1102295,18.9219467 42.1120755,18.9224241 C42.1179391,18.9245991 42.1190354,18.9251296 42.1202237,18.9257661 L42.1284378,18.9310002 C42.1299844,18.9321319 42.1316183,18.933405 42.133337,18.9348373 L42.1510338,18.9525022 C42.3209562,19.1485665 42.9521745,20.6027105 42.9686476,31.3876111 L42.9686476,31.812541 C42.9686476,42.9843893 42.323163,44.4739691 42.1510338,44.6725798 L42.133337,44.6902447 C42.1247433,44.6974061 42.1182715,44.700589 42.1142163,44.7020036 L42.1105289,44.7029938 C42.1092746,44.7031352 42.1092746,44.7052837 42.1070187,44.7093657 L42.1030845,44.7151785 L42.0912278,44.7271977 C41.930611,44.8648692 40.3405046,45.5471082 24.5984516,45.5625082 L24.5984516,45.5625082 Z M48.5545717,28.3750492 L47.6951988,28.3750492 C46.9862581,28.3750492 46.4061394,27.7949305 46.4061394,27.0859897 L46.4061394,26.2266168 C46.4061394,25.5176761 46.9862581,24.9375574 47.6951988,24.9375574 L48.5545717,24.9375574 C49.2635125,24.9375574 49.8436312,25.5176761 49.8436312,26.2266168 L49.8436312,27.0859897 C49.8436312,27.7949305 49.2635125,28.3750492 48.5545717,28.3750492 Z M48.5545717,35.2500328 L47.6951988,35.2500328 C46.9862581,35.2500328 46.4061394,34.6699141 46.4061394,33.9609734 L46.4061394,33.1016004 C46.4061394,32.3926597 46.9862581,31.812541 47.6951988,31.812541 L48.5545717,31.812541 C49.2635125,31.812541 49.8436312,32.3926597 49.8436312,33.1016004 L49.8436312,33.9609734 C49.8436312,34.6699141 49.2635125,35.2500328 48.5545717,35.2500328 Z M12.0312213,55.8749836 L14.3192808,52.4374918 L40.6697829,52.4374918 L42.9579474,55.8749836 L48.1141851,55.8749836 L48.1141851,52.4374918 L49.832931,52.4374918 C52.6796039,52.4374918 54.9892057,50.127927 54.9892057,47.2812541 L54.9892057,16.3438279 C54.9998689,13.497155 52.6903041,11.1875902 49.8436312,11.1875902 L36.3944235,11.1875902 L40.2293963,6.74029317 C41.5721665,5.39752293 41.5721665,3.21688505 40.2293963,1.87411481 C38.886626,0.531344578 36.7059882,0.531344578 35.3632179,1.87411481 L27.4999344,10.9942522 L19.636651,1.88491992 C18.2938807,0.542149682 16.1132428,0.542149682 14.7704726,1.88491992 C13.4277024,3.22769015 13.4277024,5.40832804 14.7704726,6.75109827 L18.6054454,11.1875902 L5.15623771,11.1875902 C2.30956481,11.1875902 0,13.497155 0,16.3438279 L0,47.2812541 C0,50.127927 2.30956481,52.4374918 5.15623771,52.4374918 L6.87498361,52.4374918 L6.87498361,55.8749836 L12.0312213,55.8749836 Z M24.5984516,45.5625082 L24.0624426,45.5625082 C9.69372689,45.5625082 7.969481,44.8970098 7.76257149,44.7372902 L7.75068465,44.7271977 C7.74905184,44.7256508 7.74758231,44.7241727 7.74625973,44.722765 C7.73835694,44.7129407 7.73721397,44.7109985 7.73639757,44.7093657 L7.73479742,44.7054091 C7.73435656,44.7031352 7.73393218,44.7031352 7.73310228,44.7029938 C7.65966538,44.6776723 6.87498361,44.1302199 6.87498361,31.812541 C6.87498361,21.7865232 7.3948512,19.5585193 7.62590346,19.0634073 L7.64498177,19.0250715 C7.67553726,18.9677799 7.69972701,18.942317 7.71519337,18.9310002 L7.72340751,18.9257661 L7.72340751,18.9257661 C7.73103695,18.9225126 7.73227237,18.9222296 7.73310228,18.9220882 L7.73437289,18.9216906 L7.73479742,18.9196728 L7.73995709,18.9099035 L7.73995709,18.9099035 C7.86529148,18.7756282 9.1746407,18.0781439 23.5774821,18.0625738 L24.0624426,18.0625738 C40.3045914,18.0625738 41.9288063,18.7586659 42.0912278,18.8978843 L42.1030845,18.9099035 C42.107506,18.915498 42.1087693,18.9192448 42.1091302,18.9209292 C42.1092746,18.9219467 42.1102295,18.9219467 42.1120755,18.9224241 C42.1179391,18.9245991 42.1190354,18.9251296 42.1202237,18.9257661 L42.1284378,18.9310002 C42.1299844,18.9321319 42.1316183,18.933405 42.133337,18.9348373 L42.1510338,18.9525022 C42.3209562,19.1485665 42.9521745,20.6027105 42.9686476,31.3876111 L42.9686476,31.812541 C42.9686476,42.9843893 42.323163,44.4739691 42.1510338,44.6725798 L42.133337,44.6902447 C42.1247433,44.6974061 42.1182715,44.700589 42.1142163,44.7020036 L42.1105289,44.7029938 C42.1092746,44.7031352 42.1092746,44.7052837 42.1070187,44.7093657 L42.1030845,44.7151785 L42.0912278,44.7271977 C41.930611,44.8648692 40.3405046,45.5471082 24.5984516,45.5625082 L24.5984516,45.5625082 Z M48.5545717,28.3750492 L47.6951988,28.3750492 C46.9862581,28.3750492 46.4061394,27.7949305 46.4061394,27.0859897 L46.4061394,26.2266168 C46.4061394,25.5176761 46.9862581,24.9375574 47.6951988,24.9375574 L48.5545717,24.9375574 C49.2635125,24.9375574 49.8436312,25.5176761 49.8436312,26.2266168 L49.8436312,27.0859897 C49.8436312,27.7949305 49.2635125,28.3750492 48.5545717,28.3750492 Z M48.5545717,35.2500328 L47.6951988,35.2500328 C46.9862581,35.2500328 46.4061394,34.6699141 46.4061394,33.9609734 L46.4061394,33.1016004 C46.4061394,32.3926597 46.9862581,31.812541 47.6951988,31.812541 L48.5545717,31.812541 C49.2635125,31.812541 49.8436312,32.3926597 49.8436312,33.1016004 L49.8436312,33.9609734 C49.8436312,34.6699141 49.2635125,35.2500328 48.5545717,35.2500328 Z" id="ttv-retro" fill="#FFFFFF" fill-rule="nonzero"></path>
    </g>
</svg>